# xmcd CD database file
#
# Track frame offsets:
#	150
#	26311
#	64272
#	90847
#	120402
#	153801
#	182741
#	206229
#	228724
#
# Disc length: 3483 seconds
#
# Revision: 0
# Processed by: cddbd v1.5.2PL0 Copyright (c) Steve Scherf et al.
# Submitted via: CDex 1.51
#
DISCID=6a0d9909
DTITLE=Chris Kase Quartet - Te Espero Aquí
DYEAR=1999
DGENRE=Jazz
TTITLE0=It's Required
TTITLE1=El Hueso
TTITLE2=Folklórico
TTITLE3=This Was For Us
TTITLE4=Three Sambas
TTITLE5=I'll Wait For You Here
TTITLE6=	Bunkhouse
TTITLE7=High Anxiety
TTITLE8=Crescent City Highlander
EXTD=YEAR: 1999
EXTT0=
EXTT1=
EXTT2=
EXTT3=
EXTT4=
EXTT5=
EXTT6=
EXTT7=
EXTT8=
PLAYORDER=
